<svg width="226" height="338" viewBox="0 0 226 338" fill="none" xmlns="http://www.w3.org/2000/svg">
<path d="M106.398 230.79L106.067 231.733L106.987 232.056L107.333 231.144L106.398 230.79ZM66.7169 216.901L65.7731 216.571L65.4427 217.515L66.3866 217.845L66.7169 216.901ZM75.8769 196.051L75.0118 195.55L75.006 195.56L75.8769 196.051ZM104.317 171.552L103.969 170.615L103.958 170.618L103.948 170.623L104.317 171.552ZM138.219 134.996L137.221 135.061L137.222 135.073L137.223 135.086L138.219 134.996ZM134.645 126.14L133.873 126.776L133.886 126.792L133.9 126.807L134.645 126.14ZM115.703 119.511L115.539 118.524L115.526 118.527L115.703 119.511ZM106.364 124.467L107.036 125.208L107.044 125.2L106.364 124.467ZM98.96 136.309L98.6296 137.253L99.5415 137.572L99.8919 136.672L98.96 136.309ZM52.0898 119.904L51.1528 119.555L50.7964 120.511L51.7594 120.848L52.0898 119.904ZM72.9259 89.6392L72.3316 88.8349L72.3298 88.8363L72.9259 89.6392ZM103.06 78.9243L103.109 79.9231L103.113 79.9228L103.06 78.9243ZM186.534 129.093L185.559 129.316L185.561 129.321L186.534 129.093ZM171.954 180.947L171.267 180.221L171.262 180.225L171.954 180.947ZM131.872 203.235L132.247 204.161L132.259 204.157L132.271 204.152L131.872 203.235ZM115.917 213.791L116.668 214.45L116.673 214.445L115.917 213.791ZM59.3336 242.873L59.7311 243.791L59.7405 243.787L59.3336 242.873ZM96.6638 255.939L95.776 256.4L95.7809 256.409L96.6638 255.939ZM85.0012 289.26L85.3987 290.177L85.4081 290.173L85.0012 289.26ZM47.671 276.194L46.7833 276.654L46.7881 276.663L47.671 276.194ZM106.728 229.846L67.0473 215.957L66.3866 217.845L106.067 231.733L106.728 229.846ZM67.6608 217.231C70.4856 209.161 73.5161 202.268 76.7477 196.543L75.006 195.56C71.7024 201.412 68.6263 208.419 65.7731 216.571L67.6608 217.231ZM76.7419 196.553C80.0844 190.79 84.0116 185.966 88.5183 182.069L87.2101 180.557C82.5178 184.614 78.4534 189.616 75.0118 195.55L76.7419 196.553ZM88.5183 182.069C93.0231 178.174 98.4081 174.975 104.686 172.481L103.948 170.623C97.4879 173.189 91.9042 176.497 87.2101 180.557L88.5183 182.069ZM104.666 172.489C110.286 170.4 115.267 168.234 119.605 165.99L118.686 164.214C114.434 166.413 109.53 168.547 103.969 170.615L104.666 172.489ZM119.605 165.99C123.973 163.732 127.634 161.15 130.572 158.236L129.164 156.816C126.396 159.561 122.909 162.03 118.686 164.214L119.605 165.99ZM130.572 158.236C133.535 155.297 135.719 151.816 137.123 147.804L135.236 147.144C133.93 150.875 131.907 154.095 129.164 156.816L130.572 158.236ZM137.123 147.804C138.829 142.931 139.55 138.622 139.215 134.906L137.223 135.086C137.524 138.422 136.885 142.431 135.236 147.144L137.123 147.804ZM139.217 134.932C138.978 131.234 137.709 128.065 135.39 125.474L133.9 126.807C135.895 129.037 137.009 131.771 137.221 135.061L139.217 134.932ZM135.417 125.505C133.238 122.856 130.065 120.84 125.982 119.41L125.321 121.298C129.164 122.643 131.988 124.485 133.873 126.776L135.417 125.505ZM125.982 119.41C122.595 118.225 119.109 117.93 115.539 118.524L115.868 120.497C119.109 119.958 122.255 120.225 125.321 121.298L125.982 119.41ZM115.526 118.527C111.992 119.166 108.71 120.923 105.683 123.735L107.044 125.2C109.843 122.601 112.788 121.054 115.881 120.495L115.526 118.527ZM105.692 123.727C102.656 126.48 100.116 130.582 98.0281 135.947L99.8919 136.672C101.915 131.474 104.31 127.68 107.036 125.208L105.692 123.727ZM99.2903 135.365L52.4202 118.96L51.7594 120.848L98.6296 137.253L99.2903 135.365ZM53.0268 120.254C58.0644 106.74 64.9129 96.8346 73.5221 90.4421L72.3298 88.8363C63.3244 95.5231 56.2821 105.795 51.1528 119.555L53.0268 120.254ZM73.5202 90.4435C82.2922 83.9619 92.1468 80.4573 103.109 79.9231L103.011 77.9254C91.6577 78.4787 81.423 82.1174 72.3316 88.8349L73.5202 90.4435ZM103.113 79.9228C114.248 79.3271 125.842 81.129 137.903 85.3504L138.564 83.4627C126.291 79.1671 114.436 77.3142 103.006 77.9257L103.113 79.9228ZM137.903 85.3504C151.267 90.0278 161.981 96.09 170.083 103.512L171.434 102.037C163.084 94.389 152.115 88.2057 138.564 83.4627L137.903 85.3504ZM170.083 103.512C178.174 110.923 183.318 119.521 185.559 129.316L187.509 128.87C185.169 118.645 179.797 109.697 171.434 102.037L170.083 103.512ZM185.561 129.321C187.831 139.014 186.946 149.721 182.832 161.475L184.72 162.136C188.929 150.108 189.883 139.007 187.508 128.865L185.561 129.321ZM182.832 161.475C180.1 169.28 176.237 175.516 171.267 180.221L172.642 181.673C177.884 176.71 181.903 170.184 184.72 162.136L182.832 161.475ZM171.262 180.225C166.364 184.92 160.54 188.897 153.781 192.151L154.649 193.953C161.578 190.617 167.581 186.524 172.646 181.669L171.262 180.225ZM153.781 192.151C147.076 195.38 139.64 198.768 131.474 202.317L132.271 204.152C140.456 200.594 147.916 197.195 154.649 193.953L153.781 192.151ZM131.497 202.308C124.409 205.177 118.94 208.774 115.161 213.136L116.673 214.445C120.185 210.392 125.353 206.952 132.247 204.161L131.497 202.308ZM115.165 213.131C111.448 217.365 108.222 223.149 105.462 230.435L107.333 231.144C110.039 223.996 113.159 218.447 116.668 214.45L115.165 213.131ZM47.2808 257.278C49.5133 250.9 53.6506 246.424 59.731 243.791L58.9361 241.956C52.3334 244.815 47.8063 249.723 45.3931 256.618L47.2808 257.278ZM59.7405 243.787C65.844 241.068 72.5881 240.967 80.0396 243.575L80.7003 241.688C72.8509 238.94 65.5709 239 58.9267 241.96L59.7405 243.787ZM80.0396 243.575C87.491 246.183 92.7001 250.468 95.7761 256.399L97.5515 255.479C94.2031 249.022 88.5496 244.435 80.7003 241.688L80.0396 243.575ZM95.7809 256.409C98.8917 262.259 99.3349 268.338 97.1024 274.716L98.9901 275.377C101.403 268.482 100.925 261.823 97.5468 255.47L95.7809 256.409ZM97.1024 274.716C94.8698 281.095 90.7143 285.62 84.5944 288.346L85.4081 290.173C92.0358 287.221 96.5771 282.271 98.9901 275.377L97.1024 274.716ZM84.6038 288.342C78.5321 290.972 71.8005 291.029 64.3437 288.419L63.6829 290.307C71.5269 293.053 78.7872 293.041 85.3987 290.177L84.6038 288.342ZM64.3437 288.419C56.8869 285.81 51.6603 281.567 48.554 275.724L46.7881 276.663C50.1706 283.025 55.839 287.562 63.6829 290.307L64.3437 288.419ZM48.5588 275.734C45.4745 269.786 45.0482 263.657 47.2808 257.278L45.3931 256.618C42.9801 263.512 43.4431 270.213 46.7833 276.654L48.5588 275.734Z" fill="white"/>
<path d="M109.676 255.133L109.346 256.077L110.266 256.399L110.611 255.488L109.676 255.133ZM69.9952 241.245L69.0514 240.914L68.721 241.858L69.6649 242.189L69.9952 241.245ZM79.1552 220.395L78.2901 219.893L78.2843 219.904L79.1552 220.395ZM107.596 195.896L107.247 194.958L107.237 194.962L107.226 194.966L107.596 195.896ZM141.497 159.34L140.499 159.404L140.5 159.417L140.501 159.43L141.497 159.34ZM137.923 150.484L137.151 151.12L137.164 151.136L137.178 151.151L137.923 150.484ZM118.982 143.854L118.818 142.868L118.804 142.87L118.982 143.854ZM109.642 148.811L110.314 149.552L110.323 149.544L109.642 148.811ZM102.238 160.653L101.908 161.597L102.82 161.916L103.17 161.016L102.238 160.653ZM55.3681 144.248L54.4311 143.899L54.0747 144.855L55.0378 145.192L55.3681 144.248ZM76.2042 113.983L75.61 113.179L75.6081 113.18L76.2042 113.983ZM106.338 103.268L106.387 104.267L106.392 104.267L106.338 103.268ZM189.813 153.437L188.838 153.66L188.839 153.665L189.813 153.437ZM175.233 205.291L174.545 204.565L174.541 204.569L175.233 205.291ZM135.151 227.578L135.526 228.505L135.538 228.5L135.549 228.495L135.151 227.578ZM119.195 238.134L119.947 238.794L119.951 238.789L119.195 238.134ZM62.6119 267.217L63.0094 268.135L63.0188 268.13L62.6119 267.217ZM99.9421 280.283L99.0544 280.743L99.0592 280.752L99.9421 280.283ZM88.2796 313.604L88.677 314.521L88.6864 314.517L88.2796 313.604ZM50.9493 300.538L50.0616 300.998L50.0664 301.007L50.9493 300.538ZM110.006 254.19L70.3256 240.301L69.6649 242.189L109.346 256.077L110.006 254.19ZM70.9391 241.575C73.7639 233.504 76.7945 226.611 80.026 220.887L78.2843 219.904C74.9807 225.756 71.9046 232.763 69.0514 240.914L70.9391 241.575ZM80.0202 220.897C83.3627 215.134 87.2899 210.31 91.7966 206.413L90.4884 204.9C85.7961 208.958 81.7317 213.96 78.2901 219.893L80.0202 220.897ZM91.7966 206.413C96.3014 202.518 101.686 199.319 107.965 196.825L107.226 194.966C100.766 197.533 95.1825 200.841 90.4884 204.9L91.7966 206.413ZM107.944 196.833C113.564 194.743 118.545 192.578 122.883 190.334L121.965 188.558C117.712 190.757 112.808 192.891 107.247 194.958L107.944 196.833ZM122.883 190.334C127.251 188.075 130.913 185.493 133.85 182.579L132.442 181.159C129.674 183.905 126.188 186.374 121.965 188.558L122.883 190.334ZM133.85 182.579C136.813 179.641 138.998 176.159 140.402 172.148L138.514 171.487C137.208 175.219 135.185 178.439 132.442 181.159L133.85 182.579ZM140.402 172.148C142.108 167.275 142.828 162.966 142.493 159.25L140.501 159.43C140.802 162.765 140.163 166.775 138.514 171.487L140.402 172.148ZM142.495 159.275C142.256 155.578 140.987 152.409 138.669 149.817L137.178 151.151C139.173 153.381 140.287 156.115 140.499 159.404L142.495 159.275ZM138.696 149.849C136.516 147.2 133.343 145.183 129.26 143.754L128.599 145.642C132.443 146.987 135.266 148.828 137.151 151.12L138.696 149.849ZM129.26 143.754C125.874 142.569 122.387 142.274 118.818 142.868L119.146 144.841C122.388 144.301 125.534 144.569 128.599 145.642L129.26 143.754ZM118.804 142.87C115.27 143.509 111.989 145.267 108.962 148.078L110.323 149.544C113.121 146.945 116.066 145.398 119.16 144.839L118.804 142.87ZM108.97 148.07C105.935 150.824 103.394 154.925 101.306 160.29L103.17 161.016C105.193 155.817 107.589 152.024 110.314 149.552L108.97 148.07ZM102.569 159.709L55.6985 143.304L55.0378 145.192L101.908 161.597L102.569 159.709ZM56.3051 144.597C61.3427 131.083 68.1912 121.178 76.8004 114.786L75.6081 113.18C66.6027 119.867 59.5605 130.139 54.4311 143.899L56.3051 144.597ZM76.7985 114.787C85.5705 108.306 95.4251 104.801 106.387 104.267L106.29 102.269C94.9361 102.822 84.7013 106.461 75.61 113.179L76.7985 114.787ZM106.392 104.267C117.526 103.671 129.12 105.473 141.181 109.694L141.842 107.806C129.569 103.511 117.714 101.658 106.285 102.269L106.392 104.267ZM141.181 109.694C154.545 114.372 165.259 120.434 173.362 127.856L174.713 126.381C166.363 118.733 155.393 112.549 141.842 107.806L141.181 109.694ZM173.362 127.856C181.452 135.267 186.597 143.865 188.838 153.66L190.787 153.213C188.448 142.988 183.075 134.041 174.713 126.381L173.362 127.856ZM188.839 153.665C191.109 163.358 190.224 174.065 186.11 185.819L187.998 186.479C192.208 174.452 193.161 163.351 190.786 153.209L188.839 153.665ZM186.11 185.819C183.378 193.624 179.515 199.859 174.545 204.565L175.92 206.017C181.163 201.054 185.181 194.528 187.998 186.479L186.11 185.819ZM174.541 204.569C169.642 209.264 163.818 213.241 157.06 216.495L157.927 218.297C164.857 214.96 170.859 210.867 175.924 206.013L174.541 204.569ZM157.06 216.495C150.354 219.723 142.918 223.112 134.752 226.661L135.549 228.495C143.735 224.938 151.194 221.538 157.927 218.297L157.06 216.495ZM134.775 226.651C127.687 229.52 122.219 233.118 118.439 237.48L119.951 238.789C123.463 234.736 128.631 231.296 135.526 228.505L134.775 226.651ZM118.444 237.475C114.726 241.709 111.5 247.492 108.741 254.779L110.611 255.488C113.318 248.34 116.438 242.791 119.947 238.794L118.444 237.475ZM50.5592 281.622C52.7916 275.244 56.9289 270.768 63.0094 268.135L62.2145 266.299C55.6117 269.159 51.0847 274.067 48.6714 280.961L50.5592 281.622ZM63.0188 268.13C69.1223 265.412 75.8664 265.311 83.3179 267.919L83.9786 266.031C76.1293 263.284 68.8492 263.344 62.205 266.303L63.0188 268.13ZM83.3179 267.919C90.7693 270.527 95.9784 274.812 99.0544 280.743L100.83 279.823C97.4814 273.366 91.8279 268.779 83.9786 266.031L83.3179 267.919ZM99.0592 280.752C102.17 286.603 102.613 292.682 100.381 299.06L102.268 299.721C104.682 292.826 104.203 286.167 100.825 279.813L99.0592 280.752ZM100.381 299.06C98.1481 305.439 93.9927 309.964 87.8727 312.69L88.6864 314.517C95.3141 311.565 99.8554 306.615 102.268 299.721L100.381 299.06ZM87.8821 312.686C81.8104 315.316 75.0788 315.373 67.622 312.763L66.9613 314.651C74.8053 317.396 82.0655 317.385 88.677 314.521L87.8821 312.686ZM67.622 312.763C60.1652 310.153 54.9387 305.91 51.8323 300.068L50.0664 301.007C53.4489 307.369 59.1173 311.905 66.9613 314.651L67.622 312.763ZM51.8371 300.077C48.7528 294.13 48.3265 288.001 50.5592 281.622L48.6714 280.961C46.2584 287.856 46.7215 294.557 50.0616 300.998L51.8371 300.077Z" fill="#FBD784"/>
</svg>
