<svg width="207" height="277" viewBox="0 0 207 277" fill="none" xmlns="http://www.w3.org/2000/svg">
<path d="M109.676 194.133L109.346 195.077L110.266 195.399L110.611 194.488L109.676 194.133ZM69.9952 180.245L69.0514 179.914L68.721 180.858L69.6649 181.189L69.9952 180.245ZM79.1552 159.395L78.2901 158.893L78.2843 158.904L79.1552 159.395ZM107.596 134.896L107.247 133.958L107.237 133.962L107.226 133.966L107.596 134.896ZM141.497 98.3399L140.499 98.4044L140.5 98.417L140.501 98.4297L141.497 98.3399ZM137.923 89.4842L137.151 90.1196L137.164 90.1356L137.178 90.1511L137.923 89.4842ZM118.982 82.8545L118.818 81.868L118.804 81.8704L118.982 82.8545ZM109.642 87.811L110.314 88.5517L110.323 88.5438L109.642 87.811ZM102.238 99.653L101.908 100.597L102.82 100.916L103.17 100.016L102.238 99.653ZM55.3681 83.248L54.4311 82.8987L54.0747 83.8548L55.0378 84.1918L55.3681 83.248ZM76.2042 52.9829L75.61 52.1787L75.6081 52.1801L76.2042 52.9829ZM106.338 42.268L106.387 43.2668L106.392 43.2666L106.338 42.268ZM189.813 92.4365L188.838 92.6596L188.839 92.6646L189.813 92.4365ZM175.233 144.291L174.545 143.565L174.541 143.569L175.233 144.291ZM135.151 166.578L135.526 167.505L135.538 167.5L135.549 167.495L135.151 166.578ZM119.195 177.134L119.947 177.794L119.951 177.789L119.195 177.134ZM62.6119 206.217L63.0094 207.135L63.0188 207.13L62.6119 206.217ZM99.9421 219.283L99.0544 219.743L99.0592 219.752L99.9421 219.283ZM88.2796 252.604L88.677 253.521L88.6864 253.517L88.2796 252.604ZM50.9493 239.538L50.0616 239.998L50.0664 240.007L50.9493 239.538ZM110.006 193.19L70.3256 179.301L69.6649 181.189L109.346 195.077L110.006 193.19ZM70.9391 180.575C73.7639 172.504 76.7945 165.611 80.026 159.887L78.2843 158.904C74.9807 164.756 71.9046 171.763 69.0514 179.914L70.9391 180.575ZM80.0202 159.897C83.3627 154.134 87.2899 149.31 91.7966 145.413L90.4884 143.9C85.7961 147.958 81.7317 152.96 78.2901 158.893L80.0202 159.897ZM91.7966 145.413C96.3014 141.518 101.686 138.319 107.965 135.825L107.226 133.966C100.766 136.533 95.1825 139.841 90.4884 143.9L91.7966 145.413ZM107.944 135.833C113.564 133.743 118.545 131.578 122.883 129.334L121.965 127.558C117.712 129.757 112.808 131.891 107.247 133.958L107.944 135.833ZM122.883 129.334C127.251 127.075 130.913 124.493 133.85 121.579L132.442 120.159C129.674 122.905 126.188 125.374 121.965 127.558L122.883 129.334ZM133.85 121.579C136.813 118.641 138.998 115.159 140.402 111.148L138.514 110.487C137.208 114.219 135.185 117.439 132.442 120.159L133.85 121.579ZM140.402 111.148C142.108 106.275 142.828 101.966 142.493 98.25L140.501 98.4297C140.802 101.765 140.163 105.775 138.514 110.487L140.402 111.148ZM142.495 98.2754C142.256 94.5782 140.987 91.4087 138.669 88.8174L137.178 90.1511C139.173 92.3805 140.287 95.1148 140.499 98.4044L142.495 98.2754ZM138.696 88.8489C136.516 86.1996 133.343 84.1834 129.26 82.7541L128.599 84.6418C132.443 85.9871 135.266 87.8283 137.151 90.1196L138.696 88.8489ZM129.26 82.7541C125.874 81.5688 122.387 81.2739 118.818 81.8681L119.146 83.8409C122.388 83.3014 125.534 83.5688 128.599 84.6418L129.26 82.7541ZM118.804 81.8704C115.27 82.5093 111.989 84.2668 108.962 87.0783L110.323 88.5438C113.121 85.9447 116.066 84.3979 119.16 83.8385L118.804 81.8704ZM108.97 87.0704C105.935 89.8242 103.394 93.9255 101.306 99.2903L103.17 100.016C105.193 94.8175 107.589 91.0241 110.314 88.5517L108.97 87.0704ZM102.569 98.7091L55.6985 82.3041L55.0378 84.1918L101.908 100.597L102.569 98.7091ZM56.3051 83.5973C61.3427 70.0833 68.1912 60.1783 76.8004 53.7858L75.6081 52.1801C66.6027 58.8668 59.5605 69.1386 54.4311 82.8987L56.3051 83.5973ZM76.7985 53.7872C85.5705 47.3056 95.4251 43.801 106.387 43.2668L106.29 41.2692C94.9361 41.8225 84.7013 45.4611 75.61 52.1787L76.7985 53.7872ZM106.392 43.2666C117.526 42.6708 129.12 44.4727 141.181 48.6942L141.842 46.8065C129.569 42.5109 117.714 40.6579 106.285 41.2694L106.392 43.2666ZM141.181 48.6942C154.545 53.3716 165.259 59.4338 173.362 66.8559L174.713 65.3811C166.363 57.7328 155.393 51.5495 141.842 46.8065L141.181 48.6942ZM173.362 66.8559C181.452 74.2665 186.597 82.8646 188.838 92.6596L190.787 92.2135C188.448 81.9884 183.075 73.0411 174.713 65.3811L173.362 66.8559ZM188.839 92.6646C191.109 102.358 190.224 113.065 186.11 124.819L187.998 125.479C192.208 113.452 193.161 102.351 190.786 92.2085L188.839 92.6646ZM186.11 124.819C183.378 132.624 179.515 138.859 174.545 143.565L175.92 145.017C181.163 140.054 185.181 133.528 187.998 125.479L186.11 124.819ZM174.541 143.569C169.642 148.264 163.818 152.241 157.06 155.495L157.927 157.297C164.857 153.96 170.859 149.867 175.924 145.013L174.541 143.569ZM157.06 155.495C150.354 158.723 142.918 162.112 134.752 165.661L135.549 167.495C143.735 163.938 151.194 160.538 157.927 157.297L157.06 155.495ZM134.775 165.651C127.687 168.52 122.219 172.118 118.439 176.48L119.951 177.789C123.463 173.736 128.631 170.296 135.526 167.505L134.775 165.651ZM118.444 176.475C114.726 180.709 111.5 186.492 108.741 193.779L110.611 194.488C113.318 187.34 116.438 181.791 119.947 177.794L118.444 176.475ZM50.5592 220.622C52.7916 214.244 56.9289 209.768 63.0094 207.135L62.2145 205.299C55.6117 208.159 51.0847 213.067 48.6714 219.961L50.5592 220.622ZM63.0188 207.13C69.1223 204.412 75.8664 204.311 83.3179 206.919L83.9786 205.031C76.1293 202.284 68.8492 202.344 62.205 205.303L63.0188 207.13ZM83.3179 206.919C90.7693 209.527 95.9784 213.812 99.0544 219.743L100.83 218.823C97.4814 212.366 91.8279 207.779 83.9786 205.031L83.3179 206.919ZM99.0592 219.752C102.17 225.603 102.613 231.682 100.381 238.06L102.268 238.721C104.682 231.826 104.203 225.167 100.825 218.813L99.0592 219.752ZM100.381 238.06C98.1481 244.439 93.9927 248.964 87.8727 251.69L88.6864 253.517C95.3141 250.565 99.8554 245.615 102.268 238.721L100.381 238.06ZM87.8821 251.686C81.8104 254.316 75.0788 254.373 67.622 251.763L66.9613 253.651C74.8053 256.396 82.0655 256.385 88.677 253.521L87.8821 251.686ZM67.622 251.763C60.1652 249.153 54.9387 244.91 51.8323 239.068L50.0664 240.007C53.4489 246.369 59.1173 250.905 66.9613 253.651L67.622 251.763ZM51.8371 239.077C48.7528 233.13 48.3265 227.001 50.5592 220.622L48.6714 219.961C46.2584 226.856 46.7215 233.557 50.0616 239.998L51.8371 239.077Z" fill="#FBD784"/>
<path d="M106.398 169.79L106.067 170.733L106.987 171.056L107.333 170.144L106.398 169.79ZM66.7169 155.901L65.7731 155.571L65.4427 156.515L66.3866 156.845L66.7169 155.901ZM75.8769 135.051L75.0118 134.55L75.006 134.56L75.8769 135.051ZM104.317 110.552L103.969 109.615L103.958 109.618L103.948 109.623L104.317 110.552ZM138.219 73.9961L137.221 74.0606L137.222 74.0733L137.223 74.0859L138.219 73.9961ZM134.645 65.1405L133.873 65.7758L133.886 65.7919L133.9 65.8073L134.645 65.1405ZM115.703 58.5107L115.539 57.5242L115.526 57.5267L115.703 58.5107ZM106.364 63.4673L107.036 64.208L107.044 64.2L106.364 63.4673ZM98.96 75.3092L98.6296 76.2531L99.5415 76.5723L99.8919 75.6719L98.96 75.3092ZM52.0898 58.9042L51.1528 58.5549L50.7964 59.511L51.7594 59.8481L52.0898 58.9042ZM72.9259 28.6392L72.3316 27.8349L72.3298 27.8363L72.9259 28.6392ZM103.06 17.9243L103.109 18.9231L103.113 18.9228L103.06 17.9243ZM186.534 68.0928L185.559 68.3159L185.561 68.3208L186.534 68.0928ZM171.954 119.947L171.267 119.221L171.262 119.225L171.954 119.947ZM131.872 142.235L132.247 143.161L132.259 143.157L132.271 143.152L131.872 142.235ZM115.917 152.791L116.668 153.45L116.673 153.445L115.917 152.791ZM59.3336 181.873L59.7311 182.791L59.7405 182.787L59.3336 181.873ZM96.6638 194.939L95.776 195.4L95.7809 195.409L96.6638 194.939ZM85.0012 228.26L85.3987 229.177L85.4081 229.173L85.0012 228.26ZM47.671 215.194L46.7833 215.654L46.7881 215.663L47.671 215.194ZM106.728 168.846L67.0473 154.957L66.3866 156.845L106.067 170.733L106.728 168.846ZM67.6608 156.231C70.4856 148.161 73.5161 141.268 76.7477 135.543L75.006 134.56C71.7024 140.412 68.6263 147.419 65.7731 155.571L67.6608 156.231ZM76.7419 135.553C80.0844 129.79 84.0116 124.966 88.5183 121.069L87.2101 119.557C82.5178 123.614 78.4534 128.616 75.0118 134.55L76.7419 135.553ZM88.5183 121.069C93.0231 117.174 98.4081 113.975 104.686 111.481L103.948 109.623C97.4879 112.189 91.9042 115.497 87.2101 119.557L88.5183 121.069ZM104.666 111.489C110.286 109.4 115.267 107.234 119.605 104.99L118.686 103.214C114.434 105.413 109.53 107.547 103.969 109.615L104.666 111.489ZM119.605 104.99C123.973 102.732 127.634 100.15 130.572 97.2356L129.164 95.8156C126.396 98.561 122.909 101.03 118.686 103.214L119.605 104.99ZM130.572 97.2356C133.535 94.2968 135.719 90.8157 137.123 86.8045L135.236 86.1437C133.93 89.875 131.907 93.0949 129.164 95.8156L130.572 97.2356ZM137.123 86.8045C138.829 81.9309 139.55 77.6219 139.215 73.9063L137.223 74.0859C137.524 77.4216 136.885 81.4313 135.236 86.1437L137.123 86.8045ZM139.217 73.9316C138.978 70.2344 137.709 67.0649 135.39 64.4737L133.9 65.8073C135.895 68.0368 137.009 70.771 137.221 74.0606L139.217 73.9316ZM135.417 64.5051C133.238 61.8558 130.065 59.8396 125.982 58.4104L125.321 60.2981C129.164 61.6433 131.988 63.4846 133.873 65.7758L135.417 64.5051ZM125.982 58.4104C122.595 57.2251 119.109 56.9302 115.539 57.5243L115.868 59.4972C119.109 58.9576 122.255 59.225 125.321 60.2981L125.982 58.4104ZM115.526 57.5267C111.992 58.1655 108.71 59.9231 105.683 62.7346L107.044 64.2C109.843 61.601 112.788 60.0541 115.881 59.4948L115.526 57.5267ZM105.692 62.7267C102.656 65.4805 100.116 69.5817 98.0281 74.9466L99.8919 75.6719C101.915 70.4737 104.31 66.6803 107.036 64.2079L105.692 62.7267ZM99.2903 74.3654L52.4202 57.9604L51.7594 59.8481L98.6296 76.2531L99.2903 74.3654ZM53.0268 59.2535C58.0644 45.7395 64.9129 35.8346 73.5221 29.4421L72.3298 27.8363C63.3244 34.5231 56.2821 44.7948 51.1528 58.5549L53.0268 59.2535ZM73.5202 29.4435C82.2922 22.9619 92.1468 19.4573 103.109 18.9231L103.011 16.9254C91.6577 17.4787 81.423 21.1174 72.3316 27.8349L73.5202 29.4435ZM103.113 18.9228C114.248 18.3271 125.842 20.129 137.903 24.3504L138.564 22.4627C126.291 18.1671 114.436 16.3142 103.006 16.9257L103.113 18.9228ZM137.903 24.3504C151.267 29.0278 161.981 35.09 170.083 42.5122L171.434 41.0374C163.084 33.389 152.115 27.2057 138.564 22.4627L137.903 24.3504ZM170.083 42.5122C178.174 49.9228 183.318 58.5208 185.559 68.3158L187.509 67.8697C185.169 57.6446 179.797 48.6973 171.434 41.0374L170.083 42.5122ZM185.561 68.3208C187.831 78.0141 186.946 88.7215 182.832 100.475L184.72 101.136C188.929 89.1082 189.883 78.0073 187.508 67.8648L185.561 68.3208ZM182.832 100.475C180.1 108.28 176.237 114.516 171.267 119.221L172.642 120.673C177.884 115.71 181.903 109.184 184.72 101.136L182.832 100.475ZM171.262 119.225C166.364 123.92 160.54 127.897 153.781 131.151L154.649 132.953C161.578 129.617 167.581 125.524 172.646 120.669L171.262 119.225ZM153.781 131.151C147.076 134.38 139.64 137.768 131.474 141.317L132.271 143.152C140.456 139.594 147.916 136.195 154.649 132.953L153.781 131.151ZM131.497 141.308C124.409 144.177 118.94 147.774 115.161 152.136L116.673 153.445C120.185 149.392 125.353 145.952 132.247 143.161L131.497 141.308ZM115.165 152.131C111.448 156.365 108.222 162.149 105.462 169.435L107.333 170.144C110.039 162.996 113.159 157.447 116.668 153.45L115.165 152.131ZM47.2808 196.278C49.5133 189.9 53.6506 185.424 59.731 182.791L58.9361 180.956C52.3334 183.815 47.8063 188.723 45.3931 195.618L47.2808 196.278ZM59.7405 182.787C65.844 180.068 72.5881 179.967 80.0396 182.575L80.7003 180.688C72.8509 177.94 65.5709 178 58.9267 180.96L59.7405 182.787ZM80.0396 182.575C87.491 185.183 92.7001 189.468 95.7761 195.399L97.5515 194.479C94.2031 188.022 88.5496 183.435 80.7003 180.688L80.0396 182.575ZM95.7809 195.409C98.8917 201.259 99.3349 207.338 97.1024 213.716L98.9901 214.377C101.403 207.482 100.925 200.823 97.5468 194.47L95.7809 195.409ZM97.1024 213.716C94.8698 220.095 90.7143 224.62 84.5944 227.346L85.4081 229.173C92.0358 226.221 96.5771 221.271 98.9901 214.377L97.1024 213.716ZM84.6038 227.342C78.5321 229.972 71.8005 230.029 64.3437 227.419L63.6829 229.307C71.5269 232.053 78.7872 232.041 85.3987 229.177L84.6038 227.342ZM64.3437 227.419C56.8869 224.81 51.6603 220.567 48.554 214.724L46.7881 215.663C50.1706 222.025 55.839 226.562 63.6829 229.307L64.3437 227.419ZM48.5588 214.734C45.4745 208.786 45.0482 202.657 47.2808 196.278L45.3931 195.618C42.9801 202.512 43.4431 209.213 46.7833 215.654L48.5588 214.734Z" fill="#0B132A"/>
</svg>
