<svg width="199" height="35" viewBox="0 0 199 35" fill="none" xmlns="http://www.w3.org/2000/svg">
<path d="M50.924 13.16C52.8467 13.16 54.3213 13.6453 55.348 14.616C56.3747 15.568 56.888 16.9867 56.888 18.872V28H54.984V25.704C54.536 26.4693 53.8733 27.0667 52.996 27.496C52.1373 27.9253 51.1107 28.14 49.916 28.14C48.2733 28.14 46.9667 27.748 45.996 26.964C45.0253 26.18 44.54 25.144 44.54 23.856C44.54 22.6053 44.988 21.5973 45.884 20.832C46.7987 20.0667 48.2453 19.684 50.224 19.684H54.9V18.788C54.9 17.5187 54.5453 16.5573 53.836 15.904C53.1267 15.232 52.0907 14.896 50.728 14.896C49.7947 14.896 48.8987 15.0547 48.04 15.372C47.1813 15.6707 46.444 16.0907 45.828 16.632L44.932 15.148C45.6787 14.5133 46.5747 14.028 47.62 13.692C48.6653 13.3373 49.7667 13.16 50.924 13.16ZM50.224 26.572C51.344 26.572 52.3053 26.32 53.108 25.816C53.9107 25.2933 54.508 24.5467 54.9 23.576V21.168H50.28C47.76 21.168 46.5 22.0453 46.5 23.8C46.5 24.6587 46.8267 25.34 47.48 25.844C48.1333 26.3293 49.048 26.572 50.224 26.572ZM75.9783 13.272V26.208C75.9783 28.7093 75.3623 30.5573 74.1303 31.752C72.917 32.9653 71.0783 33.572 68.6143 33.572C67.2516 33.572 65.9543 33.3667 64.7223 32.956C63.509 32.564 62.5196 32.0133 61.7543 31.304L62.7623 29.792C63.4716 30.4267 64.3303 30.9213 65.3383 31.276C66.365 31.6307 67.4383 31.808 68.5583 31.808C70.425 31.808 71.797 31.3693 72.6743 30.492C73.5516 29.6333 73.9903 28.2893 73.9903 26.46V24.584C73.3743 25.5173 72.5623 26.2267 71.5543 26.712C70.565 27.1973 69.4636 27.44 68.2503 27.44C66.869 27.44 65.609 27.1413 64.4703 26.544C63.3503 25.928 62.4636 25.0787 61.8103 23.996C61.1756 22.8947 60.8583 21.6533 60.8583 20.272C60.8583 18.8907 61.1756 17.6587 61.8103 16.576C62.4636 15.4933 63.3503 14.6533 64.4703 14.056C65.5903 13.4587 66.8503 13.16 68.2503 13.16C69.501 13.16 70.6303 13.412 71.6383 13.916C72.6463 14.42 73.4583 15.148 74.0743 16.1V13.272H75.9783ZM68.4463 25.676C69.5103 25.676 70.4716 25.452 71.3303 25.004C72.189 24.5373 72.8516 23.8933 73.3183 23.072C73.8036 22.2507 74.0463 21.3173 74.0463 20.272C74.0463 19.2267 73.8036 18.3027 73.3183 17.5C72.8516 16.6787 72.189 16.044 71.3303 15.596C70.4903 15.1293 69.529 14.896 68.4463 14.896C67.3823 14.896 66.421 15.12 65.5623 15.568C64.7223 16.016 64.0596 16.6507 63.5743 17.472C63.1076 18.2933 62.8743 19.2267 62.8743 20.272C62.8743 21.3173 63.1076 22.2507 63.5743 23.072C64.0596 23.8933 64.7223 24.5373 65.5623 25.004C66.421 25.452 67.3823 25.676 68.4463 25.676ZM94.3616 21.252H82.0416C82.1536 22.7827 82.7416 24.024 83.8056 24.976C84.8696 25.9093 86.2136 26.376 87.8376 26.376C88.7523 26.376 89.5923 26.2173 90.3576 25.9C91.123 25.564 91.7856 25.0787 92.3456 24.444L93.4656 25.732C92.8123 26.516 91.991 27.1133 91.0016 27.524C90.031 27.9347 88.9576 28.14 87.7816 28.14C86.2696 28.14 84.9256 27.8227 83.7496 27.188C82.5923 26.5347 81.687 25.6387 81.0336 24.5C80.3803 23.3613 80.0536 22.0733 80.0536 20.636C80.0536 19.1987 80.3616 17.9107 80.9776 16.772C81.6123 15.6333 82.471 14.7467 83.5536 14.112C84.655 13.4773 85.887 13.16 87.2496 13.16C88.6123 13.16 89.835 13.4773 90.9176 14.112C92.0003 14.7467 92.8496 15.6333 93.4656 16.772C94.0816 17.892 94.3896 19.18 94.3896 20.636L94.3616 21.252ZM87.2496 14.868C85.831 14.868 84.6363 15.3253 83.6656 16.24C82.7136 17.136 82.1723 18.312 82.0416 19.768H92.4856C92.355 18.312 91.8043 17.136 90.8336 16.24C89.8816 15.3253 88.687 14.868 87.2496 14.868ZM105.94 13.16C107.788 13.16 109.253 13.7013 110.336 14.784C111.437 15.848 111.988 17.4067 111.988 19.46V28H110V19.656C110 18.1253 109.617 16.9587 108.852 16.156C108.087 15.3533 106.995 14.952 105.576 14.952C103.989 14.952 102.729 15.428 101.796 16.38C100.881 17.3133 100.424 18.6107 100.424 20.272V28H98.4361V13.272H100.34V15.988C100.881 15.092 101.628 14.4013 102.58 13.916C103.551 13.412 104.671 13.16 105.94 13.16ZM125.141 27.104C124.768 27.44 124.301 27.7013 123.741 27.888C123.2 28.056 122.631 28.14 122.033 28.14C120.652 28.14 119.588 27.7667 118.841 27.02C118.095 26.2733 117.721 25.2187 117.721 23.856V14.952H115.089V13.272H117.721V10.052H119.709V13.272H124.189V14.952H119.709V23.744C119.709 24.6213 119.924 25.2933 120.353 25.76C120.801 26.208 121.436 26.432 122.257 26.432C122.668 26.432 123.06 26.3667 123.433 26.236C123.825 26.1053 124.161 25.9187 124.441 25.676L125.141 27.104ZM129.656 28.224C128.891 28.224 128.247 27.9627 127.724 27.44C127.202 26.9173 126.94 26.264 126.94 25.48C126.94 24.6773 127.202 24.0333 127.724 23.548C128.247 23.044 128.891 22.792 129.656 22.792C130.422 22.792 131.066 23.044 131.588 23.548C132.111 24.0333 132.372 24.6773 132.372 25.48C132.372 26.264 132.111 26.9173 131.588 27.44C131.066 27.9627 130.422 28.224 129.656 28.224ZM144.939 27.272C144.51 27.5893 143.978 27.832 143.343 28C142.727 28.1493 142.074 28.224 141.383 28.224C139.591 28.224 138.2 27.7667 137.211 26.852C136.24 25.9373 135.755 24.5933 135.755 22.82V16.632H133.431V13.272H135.755V9.604H140.123V13.272H143.875V16.632H140.123V22.764C140.123 23.3987 140.282 23.8933 140.599 24.248C140.935 24.584 141.402 24.752 141.999 24.752C142.69 24.752 143.278 24.5653 143.763 24.192L144.939 27.272ZM161.682 20.524C161.682 20.58 161.654 20.972 161.598 21.7H150.202C150.407 22.6333 150.893 23.3707 151.658 23.912C152.423 24.4533 153.375 24.724 154.514 24.724C155.298 24.724 155.989 24.612 156.586 24.388C157.202 24.1453 157.771 23.772 158.294 23.268L160.618 25.788C159.199 27.412 157.127 28.224 154.402 28.224C152.703 28.224 151.201 27.8973 149.894 27.244C148.587 26.572 147.579 25.648 146.87 24.472C146.161 23.296 145.806 21.9613 145.806 20.468C145.806 18.9933 146.151 17.668 146.842 16.492C147.551 15.2973 148.513 14.3733 149.726 13.72C150.958 13.048 152.33 12.712 153.842 12.712C155.317 12.712 156.651 13.0293 157.846 13.664C159.041 14.2987 159.974 15.2133 160.646 16.408C161.337 17.584 161.682 18.956 161.682 20.524ZM153.87 16.016C152.881 16.016 152.05 16.296 151.378 16.856C150.706 17.416 150.295 18.1813 150.146 19.152H157.566C157.417 18.2 157.006 17.444 156.334 16.884C155.662 16.3053 154.841 16.016 153.87 16.016ZM171.87 28.224C170.265 28.224 168.818 27.8973 167.53 27.244C166.261 26.572 165.262 25.648 164.534 24.472C163.825 23.296 163.47 21.9613 163.47 20.468C163.47 18.9747 163.825 17.64 164.534 16.464C165.262 15.288 166.261 14.3733 167.53 13.72C168.818 13.048 170.265 12.712 171.87 12.712C173.457 12.712 174.838 13.048 176.014 13.72C177.209 14.3733 178.077 15.316 178.618 16.548L175.23 18.368C174.446 16.9867 173.317 16.296 171.842 16.296C170.704 16.296 169.761 16.6693 169.014 17.416C168.268 18.1627 167.894 19.18 167.894 20.468C167.894 21.756 168.268 22.7733 169.014 23.52C169.761 24.2667 170.704 24.64 171.842 24.64C173.336 24.64 174.465 23.9493 175.23 22.568L178.618 24.416C178.077 25.6107 177.209 26.544 176.014 27.216C174.838 27.888 173.457 28.224 171.87 28.224ZM190.18 12.712C192.046 12.712 193.549 13.272 194.688 14.392C195.845 15.512 196.424 17.1733 196.424 19.376V28H192.056V20.048C192.056 18.8533 191.794 17.9667 191.272 17.388C190.749 16.7907 189.993 16.492 189.004 16.492C187.902 16.492 187.025 16.8373 186.372 17.528C185.718 18.2 185.392 19.208 185.392 20.552V28H181.024V7.224H185.392V14.504C185.97 13.9253 186.67 13.4867 187.492 13.188C188.313 12.8707 189.209 12.712 190.18 12.712Z" fill="white"/>
<path d="M10.6383 24.7295C10.3897 24.73 10.1488 24.6454 9.95745 24.4905C9.84973 24.4033 9.76069 24.2961 9.69542 24.1752C9.63015 24.0544 9.58994 23.9221 9.57709 23.786C9.56425 23.6499 9.57902 23.5127 9.62055 23.3821C9.66209 23.2516 9.72958 23.1304 9.81915 23.0254L14.5851 17.456L9.98937 11.8763C9.901 11.77 9.83501 11.6477 9.79519 11.5164C9.75537 11.3851 9.7425 11.2475 9.75733 11.1113C9.77216 10.9752 9.81439 10.8432 9.8816 10.7231C9.9488 10.6029 10.0397 10.4969 10.1489 10.4112C10.259 10.3166 10.3879 10.2453 10.5276 10.2016C10.6672 10.158 10.8146 10.143 10.9604 10.1577C11.1062 10.1723 11.2474 10.2162 11.3751 10.2867C11.5027 10.3571 11.6141 10.4526 11.7021 10.5671L16.8404 16.8014C16.9969 16.9874 17.0824 17.2206 17.0824 17.4612C17.0824 17.7019 16.9969 17.9351 16.8404 18.121L11.5213 24.3554C11.4146 24.4812 11.279 24.5806 11.1256 24.6456C10.9722 24.7105 10.8052 24.7393 10.6383 24.7295Z" fill="white"/>
<path d="M20.1418 27.7083C19.8104 27.709 19.4892 27.5903 19.234 27.3729C19.0904 27.2505 18.9717 27.1001 18.8847 26.9305C18.7976 26.7608 18.744 26.5751 18.7269 26.3841C18.7098 26.1931 18.7295 26.0005 18.7848 25.8173C18.8402 25.6342 18.9302 25.464 19.0496 25.3167L25.4042 17.5L19.2766 9.66875C19.1588 9.51958 19.0708 9.34793 19.0177 9.16369C18.9646 8.97945 18.9474 8.78623 18.9672 8.59515C18.987 8.40406 19.0433 8.21888 19.1329 8.05024C19.2225 7.88161 19.3436 7.73284 19.4894 7.61249C19.6361 7.47973 19.808 7.37959 19.9942 7.31836C20.1804 7.25712 20.3768 7.23612 20.5713 7.25666C20.7658 7.2772 20.954 7.33884 21.1242 7.43772C21.2944 7.5366 21.4428 7.67058 21.5603 7.83124L28.4113 16.5812C28.62 16.8422 28.734 17.1695 28.734 17.5073C28.734 17.8451 28.62 18.1724 28.4113 18.4333L21.3191 27.1833C21.1768 27.3598 20.9961 27.4993 20.7915 27.5905C20.587 27.6818 20.3644 27.7221 20.1418 27.7083Z" fill="white"/>
</svg>
