<svg width="69" height="69" viewBox="0 0 69 69" fill="none" xmlns="http://www.w3.org/2000/svg">
<path fill-rule="evenodd" clip-rule="evenodd" d="M34.5 69C53.5538 69 69 53.5538 69 34.5C69 15.4462 53.5538 0 34.5 0C15.4462 0 0 15.4462 0 34.5C0 53.5538 15.4462 69 34.5 69Z" fill="#FBD784"/>
<path fill-rule="evenodd" clip-rule="evenodd" d="M46.25 21.375H22.9167C21.3125 21.375 20 22.6875 20 24.2917V44.7083C20 46.3125 21.3125 47.625 22.9167 47.625H46.25C47.8542 47.625 49.1667 46.3125 49.1667 44.7083V24.2917C49.1667 22.6875 47.8542 21.375 46.25 21.375ZM46.25 44.7083H22.9167V24.2917H46.25V44.7083Z" fill="#0B1D26"/>
<path fill-rule="evenodd" clip-rule="evenodd" d="M45.3893 32.1958L43.3184 30.125L38.6955 34.7479L36.6393 32.6771L34.583 34.7333L38.6955 38.875L45.3893 32.1958Z" fill="#0B1D26"/>
<path d="M31.6667 27.2084H24.375V30.125H31.6667V27.2084Z" fill="#0B1D26"/>
<path d="M31.6667 33.0416H24.375V35.9583H31.6667V33.0416Z" fill="#0B1D26"/>
<path d="M31.6667 38.875H24.375V41.7917H31.6667V38.875Z" fill="#0B1D26"/>
</svg>
