<svg width="69" height="69" viewBox="0 0 69 69" fill="none" xmlns="http://www.w3.org/2000/svg">
<path fill-rule="evenodd" clip-rule="evenodd" d="M34.5 69C53.5538 69 69 53.5538 69 34.5C69 15.4462 53.5538 0 34.5 0C15.4462 0 0 15.4462 0 34.5C0 53.5538 15.4462 69 34.5 69Z" fill="#FBD784"/>
<path d="M35.5744 32.6819C31.8673 31.7068 30.6751 30.6986 30.6751 29.1285C30.6751 27.3269 32.3245 26.0708 35.0845 26.0708C37.9914 26.0708 39.0693 27.4757 39.1672 29.5417H42.7764C42.6621 26.6989 40.9473 24.0875 37.5341 23.2446V19.625H32.6348V23.195C29.4666 23.8892 26.919 25.9717 26.919 29.1615C26.919 32.9794 30.0382 34.8801 34.5945 35.9875C38.6773 36.9792 39.4939 38.4336 39.4939 39.9707C39.4939 41.1111 38.6936 42.9292 35.0845 42.9292C31.7203 42.9292 30.3975 41.4086 30.2178 39.4583H26.625C26.821 43.0779 29.4993 45.1108 32.6348 45.7885V49.375H37.5341V45.8215C40.7187 45.21 43.25 43.3424 43.25 39.9542C43.25 35.2603 39.2816 33.6571 35.5744 32.6819Z" fill="#0B1D26"/>
</svg>
