<svg width="12" height="12" viewBox="0 0 12 12" fill="none" xmlns="http://www.w3.org/2000/svg">
<path fill-rule="evenodd" clip-rule="evenodd" d="M1.49345 11.3929C1.1518 11.7346 0.597883 11.7346 0.256235 11.3929C-0.0854118 11.0513 -0.0854118 10.4974 0.256235 10.1557L4.58782 5.82414L0.25713 1.49345C-0.0845177 1.1518 -0.0845179 0.597883 0.257129 0.256235C0.598777 -0.085412 1.1527 -0.0854118 1.49434 0.256236L5.82504 4.58693L10.1557 0.256236C10.4974 -0.0854118 11.0513 -0.085412 11.3929 0.256235C11.7346 0.597883 11.7346 1.1518 11.3929 1.49345L7.06225 5.82414L11.3938 10.1557C11.7355 10.4974 11.7355 11.0513 11.3938 11.3929C11.0522 11.7346 10.4983 11.7346 10.1566 11.3929L5.82504 7.06136L1.49345 11.3929Z" fill="white" fill-opacity="0.78"/>
</svg>
