<svg width="69" height="69" viewBox="0 0 69 69" fill="none" xmlns="http://www.w3.org/2000/svg">
<path fill-rule="evenodd" clip-rule="evenodd" d="M34.5 69C53.5538 69 69 53.5538 69 34.5C69 15.4462 53.5538 0 34.5 0C15.4462 0 0 15.4462 0 34.5C0 53.5538 15.4462 69 34.5 69Z" fill="#FBD784"/>
<path d="M45.4792 21.375H43.875V18.4584H40.6667V21.375H27.8333V18.4584H24.625V21.375H23.0208C21.2402 21.375 19.8125 22.6875 19.8125 24.2917V44.7084C19.8125 46.3125 21.2402 47.625 23.0208 47.625H45.4792C47.2437 47.625 48.6875 46.3125 48.6875 44.7084V24.2917C48.6875 22.6875 47.2437 21.375 45.4792 21.375ZM45.4792 44.7084H23.0208V30.125H45.4792V44.7084ZM45.4792 27.2084H23.0208V24.2917H45.4792V27.2084ZM26.2292 33.0417H34.25V40.3334H26.2292V33.0417Z" fill="#0B1D26"/>
</svg>
