<svg width="24" height="24" viewBox="0 0 24 24" fill="none" xmlns="http://www.w3.org/2000/svg">
<path d="M11.9999 5.75678L19.2049 18.2409H4.79488L11.9999 5.75678ZM3.13954 17.2813C2.40277 18.5575 3.32134 20.16 4.79488 20.16H19.2049C20.6784 20.16 21.597 18.5575 20.8602 17.2813L13.6552 4.7972C12.9184 3.52097 11.0813 3.52097 10.3445 4.7972L3.13954 17.2813ZM11.043 10.5643V12.4834C11.043 13.0112 11.4736 13.443 11.9999 13.443C12.5261 13.443 12.9567 13.0112 12.9567 12.4834V10.5643C12.9567 10.0365 12.5261 9.60468 11.9999 9.60468C11.4736 9.60468 11.043 10.0365 11.043 10.5643ZM11.043 15.3621H12.9567V17.2813H11.043V15.3621Z" fill="#FF7171"/>
</svg>
