<svg width="24" height="36" viewBox="0 0 24 36" fill="none" xmlns="http://www.w3.org/2000/svg">
<path d="M1.57384 10.0504L1.57382 10.0504C1.14279 10.4674 0.9 11.0336 0.9 11.6247C0.9 12.2158 1.14279 12.782 1.57383 13.199L1.57385 13.199C2.0049 13.6157 2.58876 13.8493 3.19688 13.8493C3.80499 13.8493 4.38886 13.6157 4.81991 13.199L4.81992 13.199L9.68892 8.49022L9.68892 32.875C9.68892 33.4662 9.9318 34.0325 10.363 34.4495C10.7941 34.8664 11.378 35.1 11.9863 35.1C12.5945 35.1 13.1785 34.8664 13.6095 34.4495C14.0407 34.0325 14.2836 33.4662 14.2836 32.875L14.2836 8.49022L19.1514 13.1977C19.1516 13.198 19.1518 13.1982 19.152 13.1984C19.3639 13.4104 19.6172 13.5794 19.897 13.6957C20.1771 13.812 20.4781 13.8732 20.7827 13.8757C21.0873 13.8783 21.3894 13.8222 21.6715 13.7106C21.9536 13.599 22.2101 13.4341 22.4259 13.2253C22.6418 13.0166 22.8127 12.7681 22.9285 12.4944C23.0443 12.2207 23.1026 11.9274 23.0999 11.6314C23.0973 11.3355 23.0337 11.0432 22.913 10.7715C22.7924 10.5 22.6173 10.2547 22.398 10.0498C22.3978 10.0496 22.3976 10.0494 22.3974 10.0492L13.6093 1.55029L13.6093 1.55028C13.1782 1.13354 12.5944 0.9 11.9863 0.9C11.3781 0.9 10.7943 1.13354 10.3632 1.55028L10.3632 1.55029L1.57384 10.0504Z" fill="#46E288" stroke="#27AE60" stroke-width="0.2"/>
</svg>
