<svg width="24" height="36" viewBox="0 0 24 36" fill="none" xmlns="http://www.w3.org/2000/svg">
<path d="M22.4262 25.9496L22.4262 25.9496C22.8572 25.5326 23.1 24.9664 23.1 24.3753C23.1 23.7842 22.8572 23.218 22.4262 22.801L22.4262 22.801C21.9951 22.3843 21.4112 22.1507 20.8031 22.1507C20.195 22.1507 19.6111 22.3843 19.1801 22.801L19.1801 22.801L14.3111 27.5098L14.3111 3.12503C14.3111 2.53381 14.0682 1.96751 13.637 1.55052C13.2059 1.13363 12.622 0.900002 12.0137 0.900002C11.4055 0.900002 10.8215 1.13363 10.3905 1.55052C9.95927 1.96752 9.71639 2.53381 9.71639 3.12503L9.71639 27.5098L4.84863 22.8023C4.84842 22.802 4.84822 22.8018 4.84801 22.8016C4.63606 22.5896 4.38277 22.4206 4.10299 22.3043C3.82294 22.188 3.52186 22.1268 3.21728 22.1243C2.9127 22.1217 2.61057 22.1778 2.3285 22.2894C2.04641 22.401 1.78992 22.5659 1.57407 22.7747C1.35821 22.9834 1.18732 23.2319 1.07153 23.5056C0.955738 23.7793 0.89743 24.0726 0.900087 24.3686C0.902746 24.6645 0.966324 24.9568 1.08701 25.2285C1.20757 25.5 1.38269 25.7453 1.60196 25.9502C1.60216 25.9504 1.60236 25.9506 1.60256 25.9508L10.3907 34.4497L10.3907 34.4497C10.8218 34.8665 11.4056 35.1 12.0137 35.1C12.6219 35.1 13.2057 34.8665 13.6368 34.4497L13.6368 34.4497L22.4262 25.9496Z" fill="#F53838" stroke="#27AE60" stroke-width="0.2"/>
</svg>
