<svg width="24" height="24" viewBox="0 0 24 24" fill="none" xmlns="http://www.w3.org/2000/svg">
<path d="M18.7375 10.285C18.1142 7.26625 15.3367 5 12 5C9.35083 5 7.05 6.435 5.90417 8.535C3.145 8.815 1 11.0462 1 13.75C1 16.6462 3.46583 19 6.5 19H18.4167C20.9467 19 23 17.04 23 14.625C23 12.315 21.1208 10.4425 18.7375 10.285ZM18.4167 17.25H6.5C4.47417 17.25 2.83333 15.6838 2.83333 13.75C2.83333 11.9563 4.23583 10.46 6.09667 10.2762L7.0775 10.18L7.53583 9.34875C8.40667 7.7475 10.1117 6.75 12 6.75C14.4017 6.75 16.4733 8.3775 16.9408 10.6263L17.2158 11.9388L18.6183 12.035C20.0483 12.1225 21.1667 13.2688 21.1667 14.625C21.1667 16.0688 19.9292 17.25 18.4167 17.25ZM8.33333 12.875H10.6708V15.5H13.3292V12.875H15.6667L12 9.375L8.33333 12.875Z" fill="#CAD5F7"/>
</svg>
